inDegrees=yes
name=ik_Xsens_quaternion
DataType=double
version=3
OpenSimVersion=4.4-2022-07-23-0e9fedc
endheader
time	pelvis_tilt	pelvis_list	pelvis_rotation	pelvis_tx	pelvis_ty	pelvis_tz	hip_flexion_r	hip_adduction_r	hip_rotation_r	knee_angle_r	knee_angle_r_beta	ankle_angle_r	subtalar_angle_r	mtp_angle_r	hip_flexion_l	hip_adduction_l	hip_rotation_l	knee_angle_l	knee_angle_l_beta	ankle_angle_l	subtalar_angle_l	mtp_angle_l	lumbar_extension	lumbar_bending	lumbar_rotation	arm_flex_r	arm_add_r	arm_rot_r	elbow_flex_r	pro_sup_r	wrist_flex_r	wrist_dev_r	arm_flex_l	arm_add_l	arm_rot_l	elbow_flex_l	pro_sup_l	wrist_flex_l	wrist_dev_l
0	-4.418216753419348e-34	0	0	0	0.93	0	0	0	0	2.163926855709314e-38	1.642121625138841e-40	0	0	0	70.91806431178584	-49.99925476424161	-19.08209489017809	0.004074399043670234	7.111167835215382e-05	-3.00261527138853e-37	0	0	0	0	2.190658629223678e-55	0	3.034693743768416e-37	1.15159879414882e-46	0	1.052357267868557e-38	7.448639008962577e-46	0	5.88050448075993e-47	0	1.293710985767185e-45	0	1.052357267868557e-38	0	0
0.01666666666666667	0	0	0	0	0.93	0	0	0	0	1.689424151400202e-38	0	0	0	0	119.9940531171755	-49.99917702313314	30.59449144763827	15.68348570956274	0.2737284638213489	0	0	0	0	0	0	0	0	0	3.037384069032038e-38	7.372963345646763e-39	0	0	0	0	0	2.709525707453585e-39	2.436194935245445e-38	0	0
0.03333333333333333	0	0	0	0	0.93	0	0	0	0	0	9.970009767906195e-41	0	0	0	119.9940377812135	-49.99917506984909	30.55544758077385	15.46813976660511	0.2699699680859264	0	0	0	0	0	0	0	0	0	0	1.222020138503508e-39	0	0	0	0	0	0	1.222020138503508e-39	0	0
0.05	0	0	0	0	0.93	0	0	0	0	0	0	0	0	0	119.994036340012	-49.99917368148898	30.53662051257252	15.28254174268821	0.2667306714833814	0	0	0	0	0	0	0	0	0	0	0	0	0	0	0	0	0	0	0	0
0.06666666666666667	-3.880875026795352e-29	-1.732039284496152e-13	-5.789367534917344e-29	3.047457282381273e-16	0.93	1.855985547073685e-15	-3.94778454584584e-37	7.451431048296895e-23	0	4.841788734625322e-08	8.450515510596617e-10	2.75990579148255e-20	-4.596640437841306e-21	-2.9657365004759e-19	119.994063514864	-49.99917262108163	30.56279918028103	15.13955086260402	0.2642350098255878	-1.498465793374602e-20	-3.43424847052853e-21	-8.164352126051702e-20	0	-3.181845578816282e-20	-4.196192354039536e-31	-1.130915276493344e-20	-3.653336700963172e-19	4.417220959502288e-20	4.841788794722342e-08	4.841788787486623e-08	-1.859534905170268e-14	-6.781365801141248e-15	-4.059236432251056e-21	-1.718730503204728e-20	9.89655412410865e-21	4.841774186904846e-08	4.841788793346859e-08	-4.285575880119629e-14	-6.508368676986291e-15
0.08333333333333333	-5.151147114931538e-25	-1.519989099655664e-16	-3.612846992819871e-25	-1.820441752009995e-18	0.93	-6.977900491033916e-18	-3.130657284736001e-40	1.952394168447679e-21	0	1.194411564821342e-14	2.525851790144072e-16	-1.817694790568638e-19	4.833564085495866e-21	-1.017881329529894e-18	119.9941002443964	-49.99917199806256	30.60461079663536	15.01471423235378	0.2620561996006264	1.542366952066849e-19	-2.290954393642037e-19	-8.752145395918847e-21	0	-2.349852683211096e-21	3.751598066683275e-25	-4.543506575326214e-19	-1.020351808365364e-18	6.218091107217579e-19	1.193863062258462e-14	1.193862608537583e-14	5.607816720867713e-19	-4.151438419104872e-18	-1.989511474745196e-18	3.664243853226078e-19	2.54785497010122e-18	1.193869027792272e-14	1.193862141494282e-14	1.030424854070412e-18	5.922225773623747e-18
0.1	-8.252235363011659e-25	-5.807251005222656e-16	2.364664838368041e-25	1.358976497255191e-17	0.93	2.061478637586658e-17	1.616343150182287e-28	7.432579302328649e-20	0	1.281915760650135e-14	2.602446144273481e-16	2.833049851774492e-17	2.818473684203488e-19	-4.806593532423993e-18	119.9941574848341	-49.99917152708514	30.70739664942464	14.92719110255555	0.260528632813997	9.596704947061406e-18	1.992869556848582e-18	-4.918042290437643e-18	0	6.868580177402219e-19	-6.361606215084656e-24	-5.205562920686018e-18	-9.566505607930438e-18	1.28868269234937e-17	1.281415436898653e-14	1.281415421612911e-14	-3.658494092264529e-16	3.505035107378399e-16	-3.117622076476881e-18	-6.58161745722619e-18	6.188333821098977e-18	1.281414088027254e-14	1.281409513195205e-14	-9.214728270622356e-17	-9.751229115506969e-17
0.1166666666666667	0	0	0	0	0.93	0	0	0	0	5.176704064246092e-39	1.260079518872982e-40	0	0	0	119.9942585065555	-49.99917125971248	30.84815100333541	14.84130230638134	0.2590295905301826	0	0	0	0	0	0	0	0	0	1.045028732283109e-38	0	0	0	0	0	0	1.045028732283109e-38	0	0	0
0.1333333333333333	-3.918272545578001e-29	3.373697726548648e-13	-1.323937386429563e-29	-3.049060164415205e-15	0.93	3.211215018874446e-15	-2.937145156590333e-34	5.646731716732243e-20	0	1.286329761628378e-07	2.245068960700252e-09	-1.574836503047466e-12	9.011732102630247e-12	2.501528165920185e-11	119.9943865377181	-49.99917099156718	30.9873670896792	14.79498680472464	0.2582212325315603	-1.161012879384194e-11	2.560581895986284e-12	9.375835987730525e-12	0	7.343474277827769e-21	-8.416397224551518e-29	-2.168606849764876e-12	6.579736189453737e-20	4.259391516926612e-12	1.286325208116901e-07	1.286329762081768e-07	-3.057124207118774e-13	1.311738646005854e-16	-4.674647699894053e-12	-6.291662980375678e-12	-6.948405098271434e-12	1.286315895288169e-07	1.286329761393678e-07	3.129160220262562e-13	3.809134862706672e-17
